<?xml version="1.0" encoding="UTF-8" standalone="no"?>
<svg
   id="svg8"
   version="1.1"
   viewBox="0 0 591.16894 237.29972"
   height="237.29971mm"
   width="591.16895mm"
   xmlns="http://www.w3.org/2000/svg"
   xmlns:svg="http://www.w3.org/2000/svg"
   xmlns:rdf="http://www.w3.org/1999/02/22-rdf-syntax-ns#"
   xmlns:cc="http://creativecommons.org/ns#"
   xmlns:dc="http://purl.org/dc/elements/1.1/">
  <defs
     id="defs2" />
  <metadata
     id="metadata5">
    <rdf:RDF>
      <cc:Work
         rdf:about="">
        <dc:format>image/svg+xml</dc:format>
        <dc:type
           rdf:resource="http://purl.org/dc/dcmitype/StillImage" />
      </cc:Work>
    </rdf:RDF>
  </metadata>
  <rect
     y="1.4210855e-14"
     x="7.1054274e-15"
     height="237.29971"
     width="591.16895"
     id="rect824"
     style="opacity:0.98000004;fill:none;fill-opacity:1;stroke-width:0.42965442" />
  <g
     id="g818"
     transform="translate(-5.3444232)">
    <text
       id="text861"
       y="147.41693"
       x="234.27277"
       style="font-style:normal;font-weight:normal;font-size:127.57px;line-height:1.25;font-family:sans-serif;letter-spacing:0px;word-spacing:0px;fill:#ffffff;fill-opacity:1;stroke:none;stroke-width:3.18925"
       xml:space="preserve"><tspan
         style="font-style:normal;font-variant:normal;font-weight:bold;font-stretch:normal;font-family:'Ubuntu Mono';-inkscape-font-specification:'Ubuntu Mono Bold';stroke-width:3.18925;fill:#ffffff"
         y="147.41693"
         x="234.27277"
         id="tspan859">Typer</tspan></text>
    <g
       id="g18"
       transform="translate(3.8685904)">
      <rect
         style="fill:#ffffff;fill-opacity:1;stroke:none;stroke-width:1.18399"
         id="rect17"
         width="167.08281"
         height="116.30997"
         x="58.725174"
         y="60.494881"
         ry="12.000447" />
      <rect
         style="fill:#000000;fill-opacity:1;stroke:none;stroke-width:1.04929"
         id="rect17-3"
         width="151.51189"
         height="100.73914"
         x="66.510635"
         y="68.280281"
         ry="10.393905" />
      <path
         style="font-weight:bold;font-size:16.9333px;font-family:'Ubuntu Mono';-inkscape-font-specification:'Ubuntu Mono Bold';fill:#ffffff;stroke-width:1.31142"
         d="m 124.52019,104.09679 v 4.05741 a 3.175,3.175 135 0 1 -3.175,3.175 l -7.33071,0 a 3.175,3.175 135 0 0 -3.175,3.175 l 0,21.70989 a 3.175,3.175 135 0 1 -3.175,3.175 h -4.05741 a 3.175,3.175 45 0 1 -3.175,-3.175 l 0,-21.70989 a 3.175,3.175 45 0 0 -3.175,-3.175 h -7.330717 a 3.175,3.175 45 0 1 -3.175,-3.175 v -4.05741 a 3.175,3.175 135 0 1 3.175,-3.175 h 31.418837 a 3.175,3.175 45 0 1 3.175,3.175 z"
         id="text1-9-0-4-9-2-9-8-3-8-1-7-6"
         aria-label="T"
         transform="matrix(1.4961339,0,0,1.4961339,7.5596943,-61.118666)" />
      <path
         style="color:#000000;-inkscape-font-specification:'Ubuntu Mono Bold';fill:#ffffff;-inkscape-stroke:none"
         d="m -303.02547,937.09797 14.07242,21.48374 a 5.2472832,5.2472832 90.01889 0 1 -0.002,5.7533 l -14.07252,21.45302 a 1.8573075,1.8573075 61.631824 0 0 1.55299,2.87603 l 9.93138,0 a 6.3057385,6.3057385 151.38891 0 0 5.30171,-2.89192 l 13.79332,-21.42124 a 5.3452845,5.3452845 90.017358 0 0 0.002,-5.78497 l -13.79486,-21.45218 a 6.3011967,6.3011967 28.628445 0 0 -5.29996,-2.89305 l -9.92944,0 a 1.8587724,1.8587724 118.38707 0 0 -1.55489,2.87727 z"
         id="path4-08-1-6"
         transform="translate(392.30819,-842.7926)" />
    </g>
  </g>
</svg>
